<svg width="120" height="120" viewBox="0 0 120 120" fill="none" xmlns="http://www.w3.org/2000/svg">
<g clip-path="url(#clip0_1_4)">
<mask id="path-1-outside-1_1_4" maskUnits="userSpaceOnUse" x="5" y="4" width="72" height="81" fill="black">
<rect fill="white" x="5" y="4" width="72" height="81"/>
<path d="M73.0227 31H64.358C64.2633 28.4669 63.7424 26.2415 62.7955 24.3239C61.8485 22.4062 60.5701 20.7964 58.9602 19.4943C57.3741 18.1686 55.5511 17.1742 53.4915 16.5114C51.4318 15.8485 49.2301 15.517 46.8864 15.517C42.3883 15.517 38.1269 16.6652 34.1023 18.9616C30.0777 21.2344 26.633 24.5843 23.7685 29.0114C20.9039 33.4148 18.9508 38.8125 17.9091 45.2045C16.8674 51.4072 17.0213 56.6274 18.3707 60.8651C19.7202 65.1027 21.9574 68.3106 25.0824 70.4886C28.2074 72.6667 31.9242 73.7557 36.233 73.7557C38.7188 73.7557 41.1572 73.4242 43.5483 72.7614C45.9631 72.0985 48.2121 71.116 50.2955 69.8139C52.4025 68.4882 54.2727 66.8665 55.9062 64.9489C57.5634 63.0076 58.8655 60.7822 59.8125 58.2727H68.6193C67.3172 61.9896 65.5535 65.3158 63.3281 68.2514C61.1264 71.187 58.5814 73.6847 55.6932 75.7443C52.8049 77.7803 49.6918 79.331 46.3537 80.3963C43.0156 81.4616 39.5473 81.9943 35.9489 81.9943C29.6515 81.9943 24.2893 80.4555 19.8622 77.3778C15.4588 74.2765 12.3101 69.8968 10.4162 64.2386C8.54593 58.5568 8.25 51.8333 9.52841 44.0682C10.8068 36.4924 13.2571 29.9583 16.8793 24.4659C20.5014 18.9498 24.9403 14.7121 30.196 11.7528C35.4517 8.76988 41.1572 7.27841 47.3125 7.27841C51.0057 7.27841 54.4029 7.81108 57.5043 8.87642C60.6056 9.94176 63.3045 11.5043 65.6009 13.5639C67.8973 15.5999 69.6847 18.0857 70.9631 21.0213C72.2652 23.9332 72.9517 27.2595 73.0227 31Z"/>
</mask>
<path d="M73.0227 31H64.358C64.2633 28.4669 63.7424 26.2415 62.7955 24.3239C61.8485 22.4062 60.5701 20.7964 58.9602 19.4943C57.3741 18.1686 55.5511 17.1742 53.4915 16.5114C51.4318 15.8485 49.2301 15.517 46.8864 15.517C42.3883 15.517 38.1269 16.6652 34.1023 18.9616C30.0777 21.2344 26.633 24.5843 23.7685 29.0114C20.9039 33.4148 18.9508 38.8125 17.9091 45.2045C16.8674 51.4072 17.0213 56.6274 18.3707 60.8651C19.7202 65.1027 21.9574 68.3106 25.0824 70.4886C28.2074 72.6667 31.9242 73.7557 36.233 73.7557C38.7188 73.7557 41.1572 73.4242 43.5483 72.7614C45.9631 72.0985 48.2121 71.116 50.2955 69.8139C52.4025 68.4882 54.2727 66.8665 55.9062 64.9489C57.5634 63.0076 58.8655 60.7822 59.8125 58.2727H68.6193C67.3172 61.9896 65.5535 65.3158 63.3281 68.2514C61.1264 71.187 58.5814 73.6847 55.6932 75.7443C52.8049 77.7803 49.6918 79.331 46.3537 80.3963C43.0156 81.4616 39.5473 81.9943 35.9489 81.9943C29.6515 81.9943 24.2893 80.4555 19.8622 77.3778C15.4588 74.2765 12.3101 69.8968 10.4162 64.2386C8.54593 58.5568 8.25 51.8333 9.52841 44.0682C10.8068 36.4924 13.2571 29.9583 16.8793 24.4659C20.5014 18.9498 24.9403 14.7121 30.196 11.7528C35.4517 8.76988 41.1572 7.27841 47.3125 7.27841C51.0057 7.27841 54.4029 7.81108 57.5043 8.87642C60.6056 9.94176 63.3045 11.5043 65.6009 13.5639C67.8973 15.5999 69.6847 18.0857 70.9631 21.0213C72.2652 23.9332 72.9517 27.2595 73.0227 31Z" fill="#AD00FF"/>
<path d="M73.0227 31V34H76.0802L76.0222 30.943L73.0227 31ZM64.358 31L61.3601 31.1121L61.468 34H64.358V31ZM58.9602 19.4943L57.0363 21.7962L57.0548 21.8117L57.0736 21.8269L58.9602 19.4943ZM53.4915 16.5114L54.4106 13.6556L54.4106 13.6556L53.4915 16.5114ZM34.1023 18.9616L35.5774 21.5739L35.589 21.5673L34.1023 18.9616ZM23.7685 29.0114L26.2832 30.6473L26.2872 30.6411L23.7685 29.0114ZM17.9091 45.2045L20.8677 45.7014L20.8689 45.6942L20.87 45.6871L17.9091 45.2045ZM43.5483 72.7614L42.7541 69.8684L42.7468 69.8704L43.5483 72.7614ZM50.2955 69.8139L51.8855 72.3579L51.8931 72.3531L50.2955 69.8139ZM55.9062 64.9489L53.6246 63.0011L53.6225 63.0035L55.9062 64.9489ZM59.8125 58.2727V55.2727H57.7381L57.0057 57.2136L59.8125 58.2727ZM68.6193 58.2727L71.4506 59.2646L72.849 55.2727H68.6193V58.2727ZM63.3281 68.2514L60.9374 66.4391L60.9328 66.4453L60.9281 66.4514L63.3281 68.2514ZM55.6932 75.7443L57.4217 78.1963L57.4283 78.1916L57.435 78.1869L55.6932 75.7443ZM46.3537 80.3963L47.2658 83.2543L46.3537 80.3963ZM19.8622 77.3778L18.1348 79.8306L18.1423 79.8359L18.1498 79.8411L19.8622 77.3778ZM10.4162 64.2386L7.5666 65.1766L7.56895 65.1838L7.57134 65.1909L10.4162 64.2386ZM9.52841 44.0682L6.57021 43.569L6.56826 43.5808L9.52841 44.0682ZM16.8793 24.4659L19.3837 26.1175L19.3869 26.1126L16.8793 24.4659ZM30.196 11.7528L31.6679 14.367L31.6768 14.3619L30.196 11.7528ZM65.6009 13.5639L63.5978 15.7972L63.6042 15.803L63.6106 15.8087L65.6009 13.5639ZM70.9631 21.0213L68.2126 22.2191L68.2184 22.2325L68.2244 22.2459L70.9631 21.0213ZM73.0227 28H64.358V34H73.0227V28ZM67.3559 30.8879C67.2483 28.0094 66.651 25.356 65.4853 22.9955L60.1056 25.6522C60.8338 27.127 61.2783 28.9243 61.3601 31.1121L67.3559 30.8879ZM65.4853 22.9955C64.3528 20.7022 62.8051 18.7457 60.8468 17.1618L57.0736 21.8269C58.335 22.8471 59.3441 24.1103 60.1056 25.6522L65.4853 22.9955ZM60.8842 17.1925C58.9881 15.6077 56.8203 14.4312 54.4106 13.6556L52.5724 19.3671C54.282 19.9173 55.76 20.7294 57.0363 21.7962L60.8842 17.1925ZM54.4106 13.6556C52.0302 12.8895 49.5162 12.517 46.8864 12.517V18.517C48.944 18.517 50.8334 18.8074 52.5724 19.3671L54.4106 13.6556ZM46.8864 12.517C41.8506 12.517 37.0788 13.8093 32.6155 16.356L35.589 21.5673C39.175 19.5212 42.9259 18.517 46.8864 18.517V12.517ZM32.6271 16.3494C28.1242 18.8922 24.3403 22.6053 21.2498 27.3816L26.2872 30.6411C28.9258 26.5632 32.0311 23.5766 35.5774 21.5739L32.6271 16.3494ZM21.2538 27.3754C18.1155 32.1995 16.0416 38.0119 14.9481 44.722L20.87 45.6871C21.8599 39.6131 23.6922 34.6301 26.2832 30.6473L21.2538 27.3754ZM14.9505 44.7077C13.8606 51.1979 13.9707 56.9345 15.5122 61.7753L21.2293 59.9548C20.0719 56.3202 19.8743 51.6165 20.8677 45.7014L14.9505 44.7077ZM15.5122 61.7753C17.0269 66.5321 19.6135 70.3337 23.367 72.9498L26.7978 68.0274C24.3013 66.2875 22.4134 63.6734 21.2293 59.9548L15.5122 61.7753ZM23.367 72.9498C27.0597 75.5235 31.3943 76.7557 36.233 76.7557V70.7557C32.4542 70.7557 29.3551 69.8098 26.7978 68.0274L23.367 72.9498ZM36.233 76.7557C38.9891 76.7557 41.6972 76.3877 44.3498 75.6523L42.7468 69.8704C40.6172 70.4608 38.4484 70.7557 36.233 70.7557V76.7557ZM44.3424 75.6543C47.0326 74.9159 49.5504 73.8173 51.8855 72.3579L48.7055 67.2699C46.8738 68.4147 44.8936 69.2811 42.7541 69.8684L44.3424 75.6543ZM51.8931 72.3531C54.2607 70.8634 56.3616 69.0406 58.19 66.8943L53.6225 63.0035C52.1839 64.6923 50.5442 66.1129 48.6978 67.2747L51.8931 72.3531ZM58.1879 66.8967C60.0815 64.6785 61.5562 62.149 62.6193 59.3319L57.0057 57.2136C56.1748 59.4154 55.0454 61.3366 53.6246 63.0011L58.1879 66.8967ZM59.8125 61.2727H68.6193V55.2727H59.8125V61.2727ZM65.788 57.2809C64.5821 60.7234 62.9615 63.769 60.9374 66.4391L65.7188 70.0637C68.1455 66.8626 70.0524 63.2558 71.4506 59.2646L65.788 57.2809ZM60.9281 66.4514C58.9051 69.1489 56.5799 71.4273 53.9514 73.3018L57.435 78.1869C60.583 75.942 63.3478 73.2252 65.7281 70.0514L60.9281 66.4514ZM53.9647 73.2923C51.3241 75.1537 48.4859 76.5667 45.4416 77.5383L47.2658 83.2543C50.8976 82.0952 54.2857 80.4069 57.4217 78.1963L53.9647 73.2923ZM45.4416 77.5383C42.4063 78.507 39.2462 78.9943 35.9489 78.9943V84.9943C39.8484 84.9943 43.6249 84.4163 47.2658 83.2543L45.4416 77.5383ZM35.9489 78.9943C30.158 78.9943 25.4187 77.587 21.5746 74.9146L18.1498 79.8411C23.1599 83.324 29.145 84.9943 35.9489 84.9943V78.9943ZM21.5897 74.9251C17.7654 72.2317 14.975 68.4068 13.2611 63.2864L7.57134 65.1909C9.64528 71.3868 13.1522 76.3213 18.1348 79.8306L21.5897 74.9251ZM13.2658 63.3006C11.5868 58.1999 11.2648 51.9887 12.4886 44.5555L6.56826 43.5808C5.23519 51.678 5.50506 58.9137 7.5666 65.1766L13.2658 63.3006ZM12.4866 44.5674C13.7071 37.3348 16.0266 31.208 19.3837 26.1175L14.3748 22.8143C10.4876 28.7087 7.90655 35.65 6.57023 43.569L12.4866 44.5674ZM19.3869 26.1126C22.7713 20.9586 26.8681 17.0695 31.6679 14.3669L28.7241 9.13874C23.0126 12.3547 18.2315 16.941 14.3716 22.8192L19.3869 26.1126ZM31.6768 14.3619C36.4724 11.6401 41.6662 10.2784 47.3125 10.2784V4.27841C40.6482 4.27841 34.431 5.89966 28.7152 9.14378L31.6768 14.3619ZM47.3125 10.2784C50.7154 10.2784 53.7788 10.7688 56.5296 11.7137L58.4789 6.03915C55.027 4.85339 51.2959 4.27841 47.3125 4.27841V10.2784ZM56.5296 11.7137C59.2755 12.6569 61.6189 14.0223 63.5978 15.7972L67.6039 11.3306C64.99 8.9862 61.9357 7.22661 58.4789 6.03915L56.5296 11.7137ZM63.6106 15.8087C65.5663 17.5426 67.1007 19.6659 68.2126 22.2191L73.7136 19.8235C72.2686 16.5055 70.2282 13.6572 67.5911 11.3191L63.6106 15.8087ZM68.2244 22.2459C69.3361 24.7322 69.9586 27.6505 70.0233 31.057L76.0222 30.943C75.9448 26.8684 75.1942 23.1343 73.7017 19.7967L68.2244 22.2459Z" fill="#520079" mask="url(#path-1-outside-1_1_4)"/>
<mask id="path-3-outside-2_1_4" maskUnits="userSpaceOnUse" x="51" y="37" width="64" height="79" fill="black">
<rect fill="white" x="51" y="37" width="64" height="79"/>
<path d="M55.0795 48.0852L56.358 40.2727H110.903L109.625 48.0852H86.7557L75.9602 113H67.1534L77.9489 48.0852H55.0795Z"/>
</mask>
<path d="M55.0795 48.0852L56.358 40.2727H110.903L109.625 48.0852H86.7557L75.9602 113H67.1534L77.9489 48.0852H55.0795Z" fill="#AD00FF"/>
<path d="M55.0795 48.0852L52.1189 47.6008L51.5487 51.0852H55.0795V48.0852ZM56.358 40.2727V37.2727H53.809L53.3973 39.7883L56.358 40.2727ZM110.903 40.2727L113.864 40.7572L114.434 37.2727H110.903V40.2727ZM109.625 48.0852V51.0852H112.174L112.586 48.5697L109.625 48.0852ZM86.7557 48.0852V45.0852H84.2134L83.7963 47.5931L86.7557 48.0852ZM75.9602 113V116H78.5025L78.9196 113.492L75.9602 113ZM67.1534 113L64.1941 112.508L63.6133 116H67.1534V113ZM77.9489 48.0852L80.9082 48.5774L81.489 45.0852H77.9489V48.0852ZM58.0402 48.5697L59.3186 40.7572L53.3973 39.7883L52.1189 47.6008L58.0402 48.5697ZM56.358 43.2727H110.903V37.2727H56.358V43.2727ZM107.943 39.7883L106.664 47.6008L112.586 48.5697L113.864 40.7572L107.943 39.7883ZM109.625 45.0852H86.7557V51.0852H109.625V45.0852ZM83.7963 47.5931L73.0009 112.508L78.9196 113.492L89.715 48.5774L83.7963 47.5931ZM75.9602 110H67.1534V116H75.9602V110ZM70.1128 113.492L80.9082 48.5774L74.9895 47.5931L64.1941 112.508L70.1128 113.492ZM77.9489 45.0852H55.0795V51.0852H77.9489V45.0852Z" fill="#520079" mask="url(#path-3-outside-2_1_4)"/>
</g>
<defs>
<clipPath id="clip0_1_4">
<rect width="120" height="120" fill="white"/>
</clipPath>
</defs>
</svg>